<svg width="76" height="65" viewBox="0 0 76 65" fill="none" xmlns="http://www.w3.org/2000/svg">
<g filter="url(#filter0_f_333_9697)">
<path d="M51.7255 22.7388C50.077 17.9098 43.094 13.6062 40.5944 12.582C41.1673 13.4148 41.5735 14.3509 41.7904 15.3387C39.4152 14.0221 35.2513 11.8837 33.1328 11.4051C33.8113 12.3934 34.2478 13.5279 34.4071 14.7168C32.1802 13.8623 22.246 10.1917 21.9182 9.8452C22.3751 10.7657 22.735 11.7313 22.9922 12.7265C20.8699 11.8243 17.131 9.24507 17.4141 4.2167C12.4985 6.00972 10.4584 13.6751 11.8441 17.8782C11.9253 18.1199 10.3496 16.9053 10.3901 17.1527C11.3975 23.7962 14.9216 28.2868 15.3338 28.3086C14.7466 28.3199 14.1632 28.3404 13.5843 28.3322C14.8481 31.9387 18.1227 36.6379 21.3914 38.5569C20.6649 38.9924 19.8668 39.2949 19.0345 39.4503C22.025 43.6781 26.2477 46.8774 31.1255 48.6109C30.3375 49.4268 29.4499 50.14 28.4836 50.7336C33.2566 54.1974 42.3967 54.346 47.461 51.6264C49.5635 50.5021 51.2015 49.1727 52.1768 46.9324C52.5553 46.042 53.851 46.0404 54.3893 45.3331C54.7198 44.8981 54.4881 44.4696 54.6315 44.0242C54.9048 43.2989 55.3807 42.6675 56.0024 42.2052C56.7538 41.5292 57.2967 40.6524 57.5671 39.6783C58.6329 36.6014 58.7767 33.2805 57.9807 30.1246C56.8603 26.3117 54.9034 22.798 52.2528 19.8399C52.1721 20.8211 51.9955 21.792 51.7255 22.7388Z" fill="url(#paint0_linear_333_9697)"/>
<path d="M64.3585 51.5354C65.2438 51.8503 66.0966 50.2408 65.3193 49.78C56.4443 46.1571 47.9296 41.7078 39.8873 36.4904C33.3006 32.1558 23.9723 24.8065 18.3622 18.3548C15.6351 15.2159 13.7555 8.6773 17.1377 4.39852C15.8907 5.40307 12.3335 11.2112 17.9202 19.034C21.292 23.7208 28.9403 30.3713 35.5478 35.2519C44.4828 41.7866 54.1521 47.2516 64.3585 51.5354Z" fill="url(#paint1_linear_333_9697)"/>
<g style="mix-blend-mode:multiply" opacity="0.7">
<path opacity="0.8" d="M35.5672 35.2599C28.9402 30.371 21.2595 23.7068 17.9396 19.042C12.7164 11.7343 15.4887 6.16811 16.8882 4.66058L17.2244 4.26636C12.4694 6.20438 10.5131 13.6905 11.8793 17.8316C11.9604 18.0733 10.3847 16.8587 10.4252 17.1061C11.4326 23.7496 14.9567 28.2402 15.3689 28.262C14.7817 28.2733 14.1983 28.2938 13.6194 28.2856C14.8833 31.8921 18.1578 36.5913 21.4265 38.5103C20.7 38.9458 19.9019 39.2483 19.0696 39.4037C22.0601 43.6315 26.2828 46.8308 31.1606 48.5643C30.3726 49.3802 29.485 50.0934 28.5188 50.687C33.2917 54.1508 42.4318 54.2994 47.4961 51.5798C49.5986 50.4555 51.2366 49.1261 52.2119 46.8858C52.3875 46.5405 52.6819 46.2705 53.0408 46.1255C46.9624 42.9293 41.1226 39.298 35.5672 35.2599Z" fill="url(#paint2_linear_333_9697)"/>
<path opacity="0.6" d="M51.7255 22.7387C50.0771 17.9097 43.094 13.6061 40.5944 12.5819C41.1673 13.4147 41.5735 14.3508 41.7905 15.3386C39.4152 14.0219 35.2513 11.8835 33.1328 11.405C33.8114 12.3933 34.2479 13.5278 34.4071 14.7167C32.1802 13.8622 22.246 10.1916 21.9182 9.84508C22.3751 10.7655 22.7351 11.7312 22.9923 12.7264C20.87 11.8242 17.131 9.24495 17.4141 4.21658L17.2484 4.24588L16.9096 4.70037C13.8312 8.98552 15.6936 15.2942 18.3594 18.3611C23.9695 24.8127 33.3192 32.2018 39.8845 36.4967C44.6164 39.5722 49.5166 42.3803 54.5624 44.9078C54.5618 44.6096 54.5859 44.3118 54.6343 44.0175C54.9076 43.2923 55.3835 42.6609 56.0052 42.1986C56.7566 41.5226 57.2995 40.6458 57.5698 39.6717C58.6357 36.5948 58.7795 33.2739 57.9835 30.1179C56.8631 26.3051 54.9062 22.7914 52.2556 19.8333C52.1744 20.8167 51.9969 21.7899 51.7255 22.7387Z" fill="url(#paint3_linear_333_9697)"/>
<path opacity="0.8" d="M51.7255 22.7387C50.0771 17.9097 43.094 13.6061 40.5944 12.5819C41.1673 13.4147 41.5735 14.3508 41.7905 15.3386C39.4152 14.0219 35.2513 11.8835 33.1328 11.405C33.8114 12.3933 34.2479 13.5278 34.4071 14.7167C32.1802 13.8622 22.246 10.1916 21.9182 9.84508C22.3751 10.7655 22.7351 11.7312 22.9923 12.7264C20.87 11.8242 17.131 9.24495 17.4141 4.21658L17.2484 4.24588L16.9096 4.70037C13.8312 8.98552 15.6936 15.2942 18.3594 18.3611C23.9695 24.8127 33.3192 32.2018 39.8845 36.4967C44.6164 39.5722 49.5166 42.3803 54.5624 44.9078C54.5618 44.6096 54.5859 44.3118 54.6343 44.0175C54.9076 43.2923 55.3835 42.6609 56.0052 42.1986C56.7566 41.5226 57.2995 40.6458 57.5698 39.6717C58.6357 36.5948 58.7795 33.2739 57.9835 30.1179C56.8631 26.3051 54.9062 22.7914 52.2556 19.8333C52.1744 20.8167 51.9969 21.7899 51.7255 22.7387Z" fill="url(#paint4_linear_333_9697)"/>
</g>
<mask id="mask0_333_9697" style="mask-type:luminance" maskUnits="userSpaceOnUse" x="10" y="4" width="49" height="50">
<path d="M51.7255 22.7388C50.077 17.9098 43.094 13.6062 40.5944 12.582C41.1673 13.4148 41.5735 14.3509 41.7904 15.3387C39.4152 14.0221 35.2513 11.8837 33.1328 11.4051C33.8113 12.3934 34.2478 13.5279 34.4071 14.7168C32.1802 13.8623 22.246 10.1917 21.9182 9.8452C22.3751 10.7657 22.735 11.7313 22.9922 12.7265C20.8699 11.8243 17.131 9.24507 17.4141 4.2167C12.4985 6.00972 10.4584 13.6751 11.8441 17.8782C11.9253 18.1199 10.3496 16.9053 10.3901 17.1527C11.3975 23.7962 14.9216 28.2868 15.3338 28.3086C14.7466 28.3199 14.1632 28.3404 13.5843 28.3322C14.8481 31.9387 18.1227 36.6379 21.3914 38.5569C20.6649 38.9924 19.8668 39.2949 19.0345 39.4503C22.025 43.6781 26.2477 46.8774 31.1255 48.6109C30.3375 49.4268 29.4499 50.14 28.4836 50.7336C33.2566 54.1974 42.3967 54.346 47.461 51.6264C49.5635 50.5021 51.2015 49.1727 52.1768 46.9324C52.5553 46.042 53.851 46.0404 54.3893 45.3331C54.7198 44.8981 54.4881 44.4696 54.6315 44.0242C54.9048 43.2989 55.3807 42.6675 56.0024 42.2052C56.7538 41.5292 57.2967 40.6524 57.5671 39.6783C58.6329 36.6014 58.7767 33.2805 57.9807 30.1246C56.8603 26.3117 54.9034 22.798 52.2528 19.8399C52.1721 20.8211 51.9955 21.792 51.7255 22.7388Z" fill="white"/>
</mask>
<g mask="url(#mask0_333_9697)">
<g style="mix-blend-mode:screen" opacity="0.7">
<path opacity="0.6" d="M45.7274 40.8681C45.3028 40.3347 44.3897 39.9772 44.4944 39.2621C47.0676 21.2574 44.8018 19.2506 43.6796 17.1315C49.0546 23.253 43.9963 37.4773 46.6782 41.4258C46.487 41.4141 46.3014 41.3575 46.1362 41.2606C45.971 41.1637 45.831 41.0293 45.7274 40.8681Z" fill="url(#paint5_linear_333_9697)"/>
<path opacity="0.6" d="M49.081 41.4879C48.8544 42.0208 49.5569 42.5496 49.8166 43.0744C49.8741 43.2292 49.9648 43.3696 50.0821 43.4858C50.1995 43.602 50.3408 43.6911 50.4962 43.7469C48.9836 39.9503 55.6017 29.934 52.2503 23.7213C52.7969 25.6801 54.2981 27.8452 49.081 41.4879Z" fill="url(#paint6_linear_333_9697)"/>
<path opacity="0.6" d="M39.5199 35.9121C39.5083 36.4981 40.3296 36.7474 40.7464 37.1548C40.8575 37.2777 40.994 37.3749 41.1464 37.4397C41.2988 37.5045 41.4635 37.5353 41.6291 37.53C38.9199 34.4754 41.3055 20.427 36.0618 15.7272C37.2367 17.416 39.7859 21.3157 39.5199 35.9121Z" fill="url(#paint7_linear_333_9697)"/>
<path opacity="0.6" d="M30.873 30.709C31.1876 30.9425 31.4957 31.1732 31.8075 31.4132C30.9079 26.0662 31.5493 16.4635 27.4113 12.7861C28.5052 14.3408 30.8555 17.9334 30.873 30.709Z" fill="url(#paint8_linear_333_9697)"/>
<path opacity="0.6" d="M24.0136 25.0691C24.2131 25.2306 24.9562 25.7 25.1557 25.8615C24.8936 22.8727 25.9824 15.5165 23.3715 12.9334C24.0105 14.026 25.3391 16.4708 24.0136 25.0691Z" fill="url(#paint9_linear_333_9697)"/>
<path opacity="0.3" d="M20.5152 20.8964C20.3601 21.099 19.9657 20.3866 19.7883 20.5874C19.002 18.3272 16.1823 11.0437 17.4703 7.50907C17.1487 9.68967 17.9236 14.0859 20.5152 20.8964Z" fill="url(#paint10_linear_333_9697)"/>
</g>
<g style="mix-blend-mode:screen" opacity="0.7">
<path opacity="0.7" d="M39.8454 37.9764C29.3409 46.4633 27.0388 45.1547 25.0812 44.9287C30.189 47.1 36.2176 41.4448 40.7398 38.5944C40.4237 38.4156 40.1244 38.2088 39.8454 37.9764Z" fill="url(#paint11_linear_333_9697)"/>
<path opacity="0.7" d="M44.8242 40.4153C44.6525 40.2425 44.4779 40.0762 44.2774 39.8989C43.6675 40.054 43.1899 40.2039 43.057 40.4083C39.0403 46.5044 32.8734 49.7989 30.8672 50.1738C36.5814 50.3777 41.6561 43.5957 45.5533 40.8633C45.2998 40.7319 45.0561 40.5821 44.8242 40.4153Z" fill="url(#paint12_linear_333_9697)"/>
<path opacity="0.7" d="M49.7193 43.862C49.5079 43.7023 49.3081 43.5276 49.1216 43.3393C49.0062 43.3761 48.9009 43.439 48.8136 43.523C44.4244 49.2152 37.9854 52.1945 35.9216 52.5066C41.45 52.8233 46.6357 47.132 50.6766 44.4224C50.3389 44.2693 50.0181 44.0815 49.7193 43.862Z" fill="url(#paint13_linear_333_9697)"/>
<path opacity="0.7" d="M37.7056 35.9618L37.3258 35.5932C27.4657 39.8422 23.4165 39.1644 21.655 38.8376C26.5097 40.9014 32.8743 38.5119 38.6136 36.4936C38.2958 36.3435 37.992 36.1655 37.7056 35.9618Z" fill="url(#paint14_linear_333_9697)"/>
<path opacity="0.7" d="M31.3778 31.0543C31.6738 31.2953 31.9439 31.5252 32.2816 31.7762C27.383 31.7809 19.3253 33.7728 14.8069 30.6474C16.5158 31.4045 20.3689 32.9581 31.3778 31.0543Z" fill="url(#paint15_linear_333_9697)"/>
<path opacity="0.7" d="M24.491 25.6408C24.6277 25.86 25.3815 26.5565 25.5377 26.784C22.6131 26.2007 14.8023 26.4943 12.5527 23.566C13.5207 24.3535 15.8059 25.9541 24.491 25.6408Z" fill="url(#paint16_linear_333_9697)"/>
<path opacity="0.7" d="M21.1008 21.7363C16.0045 20.4753 12.9215 19.111 11.5247 17.9264C13.3475 20.2359 18.4655 21.6442 21.6944 22.449C21.4739 22.2312 21.2751 21.9925 21.1008 21.7363Z" fill="url(#paint17_linear_333_9697)"/>
</g>
</g>
<path opacity="0.6" d="M64.3585 51.5354C65.2438 51.8503 66.0966 50.2408 65.3193 49.78C56.4443 46.1571 47.9296 41.7078 39.8873 36.4904C33.3006 32.1558 23.9723 24.8065 18.3622 18.3548C15.6351 15.2159 13.7555 8.6773 17.1377 4.39852C15.8907 5.40307 12.3335 11.2112 17.9202 19.034C21.292 23.7208 28.9403 30.3713 35.5478 35.2519C44.4828 41.7866 54.1521 47.2516 64.3585 51.5354Z" fill="url(#paint18_linear_333_9697)"/>
<mask id="mask1_333_9697" style="mask-type:luminance" maskUnits="userSpaceOnUse" x="10" y="4" width="49" height="50">
<path d="M51.7255 22.7388C50.077 17.9098 43.094 13.6062 40.5944 12.582C41.1673 13.4148 41.5735 14.3509 41.7904 15.3387C39.4152 14.0221 35.2513 11.8837 33.1328 11.4051C33.8113 12.3934 34.2478 13.5279 34.4071 14.7168C32.1802 13.8623 22.246 10.1917 21.9182 9.8452C22.3751 10.7657 22.735 11.7313 22.9922 12.7265C20.8699 11.8243 17.131 9.24507 17.4141 4.2167C12.4985 6.00972 10.4584 13.6751 11.8441 17.8782C11.9253 18.1199 10.3496 16.9053 10.3901 17.1527C11.3975 23.7962 14.9216 28.2868 15.3338 28.3086C14.7466 28.3199 14.1632 28.3404 13.5843 28.3322C14.8481 31.9387 18.1227 36.6379 21.3914 38.5569C20.6649 38.9924 19.8668 39.2949 19.0345 39.4503C22.025 43.6781 26.2477 46.8774 31.1255 48.6109C30.3375 49.4268 29.4499 50.14 28.4836 50.7336C33.2566 54.1974 42.3967 54.346 47.461 51.6264C49.5635 50.5021 51.2015 49.1727 52.1768 46.9324C52.5553 46.042 53.851 46.0404 54.3893 45.3331C54.7198 44.8981 54.4881 44.4696 54.6315 44.0242C54.9048 43.2989 55.3807 42.6675 56.0024 42.2052C56.7538 41.5292 57.2967 40.6524 57.5671 39.6783C58.6329 36.6014 58.7767 33.2805 57.9807 30.1246C56.8603 26.3117 54.9034 22.798 52.2528 19.8399C52.1721 20.8211 51.9955 21.792 51.7255 22.7388Z" fill="white"/>
</mask>
<g mask="url(#mask1_333_9697)">
<path style="mix-blend-mode:screen" opacity="0.8" d="M26.4984 11.4545C27.0024 12.2519 27.4786 13.0605 27.928 13.8961C28.4103 14.7649 28.822 15.6713 29.1591 16.6063C29.4802 17.5901 29.737 18.5938 29.9278 19.611C30.4425 22.1318 30.6999 28.1419 30.9614 28.6444C31.2229 29.1469 34.6374 31.5882 35.4163 32.3337C36.3584 30.532 36.1864 24.9879 35.4098 21.0283C35.0188 19.0819 33.2473 15.4437 32.1475 13.7945C31.1029 12.0785 29.4339 10.8354 27.4913 10.3266C27.0011 10.2179 26.3205 10.3046 26.256 10.799C26.258 11.0391 26.3437 11.271 26.4984 11.4545Z" fill="url(#paint19_radial_333_9697)"/>
<path style="mix-blend-mode:screen" opacity="0.4" d="M19.7715 5.86315C20.2755 6.66054 21.2187 9.05653 21.7745 9.82223C25.9195 15.5743 23.9583 22.5673 24.2198 23.0698C24.4813 23.5723 27.9097 26.0349 28.6839 26.7553C29.6261 24.9536 28.013 14.5613 22.6061 9.77674C21.1256 8.46446 22.7096 5.1708 20.7784 4.75651C20.2882 4.64787 19.6076 4.73456 19.5431 5.2289C19.5401 5.46109 19.6212 5.68641 19.7715 5.86315Z" fill="url(#paint20_radial_333_9697)"/>
<path style="mix-blend-mode:screen" opacity="0.8" d="M33.0183 11.1874C39.7912 17.4274 39.6017 31.8799 39.8697 32.3852C40.5051 33.3582 41.2548 34.2514 42.1028 35.0456C43.0412 33.2346 43.3103 16.1073 37.8998 12.8635C36.3731 12.0465 34.7249 11.4806 33.0183 11.1874Z" fill="url(#paint21_radial_333_9697)"/>
<path style="mix-blend-mode:screen" opacity="0.7" d="M40.4718 12.4913C48.3624 19.3829 44.8991 35.8583 45.1311 36.3943C45.6808 37.4411 46.384 38.3995 47.2174 39.2378C48.5417 36.9157 52.6329 19.2877 44.9546 14.3662C43.5553 13.5349 42.0464 12.9038 40.4718 12.4913Z" fill="url(#paint22_radial_333_9697)"/>
<path style="mix-blend-mode:screen" opacity="0.6" d="M50.1594 15.2819C53.4404 19.5694 53.3344 25.8394 52.219 31.3657C51.4955 35.0866 50.2495 38.3782 49.6672 40.7395C49.5122 41.3565 52.461 42.3875 53.0504 43.2903C54.8554 41.3336 60.5872 26.4441 54.2359 19.9153C52.8496 18.4896 50.0126 15.1044 50.1594 15.2819Z" fill="url(#paint23_radial_333_9697)"/>
</g>
<g style="mix-blend-mode:multiply" opacity="0.2">
<path opacity="0.8" d="M15.3351 27.7106C15.4059 27.7045 15.477 27.7187 15.5399 27.7516C15.0826 27.4574 12.2411 23.7404 11.1269 18.0873C11.5675 18.3667 11.74 18.4477 12.0102 18.3708L12.2555 18.2986L12.4378 17.8696L12.3743 17.6585C11.6446 15.4453 11.9202 12.2553 13.0833 9.51933C13.5612 8.39504 15.2272 5.66567 16.974 4.51294L17.2484 4.24594C12.4934 6.18396 10.5371 13.6701 11.9033 17.8112C11.9845 18.0529 10.4088 16.8383 10.4492 17.0857C11.4566 23.7292 14.9742 28.2171 15.3929 28.2416L15.3351 27.7106Z" fill="url(#paint24_linear_333_9697)"/>
<path opacity="0.8" d="M47.2033 51.1333C42.3527 53.7289 34.006 53.4802 29.4497 50.7146C30.2056 50.2047 30.9039 49.6138 31.5321 48.9526L32.0789 48.3333L31.2919 48.0755C26.7875 46.4473 22.8417 43.5668 19.9171 39.7718C20.5784 39.6184 21.2034 39.3366 21.7564 38.9423L22.3017 38.4528L21.6913 38.0859C18.7037 36.3171 15.7814 32.1591 14.3803 28.8395L15.3748 28.7712L15.3578 28.2345C14.7706 28.2458 14.1871 28.2663 13.6082 28.2581C14.8721 31.8646 18.1467 36.5638 21.4153 38.4827C20.6889 38.9183 19.8908 39.2208 19.0585 39.3761C22.049 43.604 26.2716 46.8032 31.1495 48.5367C30.3615 49.3527 29.4739 50.0659 28.5076 50.6594C33.2805 54.1233 42.4207 54.2719 47.485 51.5522C49.3011 50.6984 50.8181 49.3161 51.8376 47.5863C50.4066 48.6814 48.9663 50.1946 47.2033 51.1333Z" fill="url(#paint25_linear_333_9697)"/>
</g>
</g>
<defs>
<filter id="filter0_f_333_9697" x="6.38928" y="0.216553" width="63.2346" height="57.2988" filterUnits="userSpaceOnUse" color-interpolation-filters="sRGB">
<feFlood flood-opacity="0" result="BackgroundImageFix"/>
<feBlend mode="normal" in="SourceGraphic" in2="BackgroundImageFix" result="shape"/>
<feGaussianBlur stdDeviation="2" result="effect1_foregroundBlur_333_9697"/>
</filter>
<linearGradient id="paint0_linear_333_9697" x1="55.6174" y1="42.3178" x2="7.43445" y2="18.047" gradientUnits="userSpaceOnUse">
<stop stop-color="#88C718"/>
<stop offset="0.26" stop-color="#83C418"/>
<stop offset="0.59" stop-color="#74BA16"/>
<stop offset="0.95" stop-color="#5AAA14"/>
<stop offset="1" stop-color="#56A714"/>
</linearGradient>
<linearGradient id="paint1_linear_333_9697" x1="57.728" y1="43.1136" x2="27.7872" y2="20.9237" gradientUnits="userSpaceOnUse">
<stop stop-color="#6FBD00"/>
<stop offset="1" stop-color="#90C900"/>
</linearGradient>
<linearGradient id="paint2_linear_333_9697" x1="44.588" y1="53.3353" x2="14.5242" y2="16.7364" gradientUnits="userSpaceOnUse">
<stop stop-color="white"/>
<stop offset="1" stop-color="#377A00"/>
</linearGradient>
<linearGradient id="paint3_linear_333_9697" x1="63.1546" y1="45.9625" x2="31.874" y2="16.0165" gradientUnits="userSpaceOnUse">
<stop stop-color="white"/>
<stop offset="1" stop-color="#377A00"/>
</linearGradient>
<linearGradient id="paint4_linear_333_9697" x1="47.3809" y1="11.6831" x2="31.1674" y2="29.8768" gradientUnits="userSpaceOnUse">
<stop stop-color="white"/>
<stop offset="1" stop-color="#377A00"/>
</linearGradient>
<linearGradient id="paint5_linear_333_9697" x1="44.0547" y1="18.426" x2="45.8773" y2="37.2845" gradientUnits="userSpaceOnUse">
<stop stop-color="#5FA200"/>
<stop offset="0.15" stop-color="#6DA800"/>
<stop offset="0.34" stop-color="#7CAE00"/>
<stop offset="1" stop-color="#5FA200"/>
</linearGradient>
<linearGradient id="paint6_linear_333_9697" x1="50.0683" y1="25.2379" x2="51.8186" y2="40.3126" gradientUnits="userSpaceOnUse">
<stop stop-color="#5FA200"/>
<stop offset="0.15" stop-color="#6DA800"/>
<stop offset="0.34" stop-color="#7CAE00"/>
<stop offset="1" stop-color="#5FA200"/>
</linearGradient>
<linearGradient id="paint7_linear_333_9697" x1="34.3868" y1="17.8834" x2="42.0294" y2="33.1111" gradientUnits="userSpaceOnUse">
<stop stop-color="#5FA200"/>
<stop offset="0.15" stop-color="#6DA800"/>
<stop offset="0.34" stop-color="#7CAE00"/>
<stop offset="1" stop-color="#5FA200"/>
</linearGradient>
<linearGradient id="paint8_linear_333_9697" x1="28.7069" y1="13.9377" x2="30.6139" y2="29.1126" gradientUnits="userSpaceOnUse">
<stop stop-color="#5FA200"/>
<stop offset="0.15" stop-color="#6DA800"/>
<stop offset="0.34" stop-color="#7CAE00"/>
<stop offset="1" stop-color="#5FA200"/>
</linearGradient>
<linearGradient id="paint9_linear_333_9697" x1="23.5475" y1="13.9435" x2="22.8229" y2="24.1482" gradientUnits="userSpaceOnUse">
<stop stop-color="#5FA200"/>
<stop offset="0.15" stop-color="#6DA800"/>
<stop offset="0.34" stop-color="#7CAE00"/>
<stop offset="1" stop-color="#5FA200"/>
</linearGradient>
<linearGradient id="paint10_linear_333_9697" x1="18.1506" y1="8.19707" x2="21.5363" y2="18.6895" gradientUnits="userSpaceOnUse">
<stop stop-color="#5FA200"/>
<stop offset="0.15" stop-color="#6DA800"/>
<stop offset="0.34" stop-color="#7CAE00"/>
<stop offset="1" stop-color="#5FA200"/>
</linearGradient>
<linearGradient id="paint11_linear_333_9697" x1="25.778" y1="46.1148" x2="40.7515" y2="37.9081" gradientUnits="userSpaceOnUse">
<stop stop-color="#5FA200"/>
<stop offset="0.15" stop-color="#6DA800"/>
<stop offset="0.34" stop-color="#7CAE00"/>
<stop offset="1" stop-color="#5FA200"/>
</linearGradient>
<linearGradient id="paint12_linear_333_9697" x1="31.5251" y1="48.107" x2="45.8392" y2="43.0079" gradientUnits="userSpaceOnUse">
<stop stop-color="#5FA200"/>
<stop offset="0.15" stop-color="#6DA800"/>
<stop offset="0.34" stop-color="#7CAE00"/>
<stop offset="1" stop-color="#5FA200"/>
</linearGradient>
<linearGradient id="paint13_linear_333_9697" x1="36.3293" y1="50.6416" x2="51.0814" y2="45.7403" gradientUnits="userSpaceOnUse">
<stop stop-color="#5FA200"/>
<stop offset="0.15" stop-color="#6DA800"/>
<stop offset="0.34" stop-color="#7CAE00"/>
<stop offset="1" stop-color="#5FA200"/>
</linearGradient>
<linearGradient id="paint14_linear_333_9697" x1="22.3464" y1="39.7531" x2="36.9121" y2="36.5686" gradientUnits="userSpaceOnUse">
<stop stop-color="#5FA200"/>
<stop offset="0.15" stop-color="#6DA800"/>
<stop offset="0.34" stop-color="#7CAE00"/>
<stop offset="1" stop-color="#5FA200"/>
</linearGradient>
<linearGradient id="paint15_linear_333_9697" x1="16.1371" y1="32.4393" x2="29.87" y2="30.6513" gradientUnits="userSpaceOnUse">
<stop stop-color="#5FA200"/>
<stop offset="0.15" stop-color="#6DA800"/>
<stop offset="0.34" stop-color="#7CAE00"/>
<stop offset="1" stop-color="#5FA200"/>
</linearGradient>
<linearGradient id="paint16_linear_333_9697" x1="13.4408" y1="24.1011" x2="23.9881" y2="24.5769" gradientUnits="userSpaceOnUse">
<stop stop-color="#5FA200"/>
<stop offset="0.15" stop-color="#6DA800"/>
<stop offset="0.34" stop-color="#7CAE00"/>
<stop offset="1" stop-color="#5FA200"/>
</linearGradient>
<linearGradient id="paint17_linear_333_9697" x1="11.6079" y1="18.62" x2="21.6084" y2="21.9704" gradientUnits="userSpaceOnUse">
<stop stop-color="#5FA200"/>
<stop offset="0.15" stop-color="#6DA800"/>
<stop offset="0.34" stop-color="#7CAE00"/>
<stop offset="1" stop-color="#5FA200"/>
</linearGradient>
<linearGradient id="paint18_linear_333_9697" x1="62.5208" y1="47.0834" x2="17.2035" y2="12.9825" gradientUnits="userSpaceOnUse">
<stop stop-color="white"/>
<stop offset="0.02" stop-color="#FAFCF8"/>
<stop offset="0.23" stop-color="#C0D5AE"/>
<stop offset="0.44" stop-color="#8FB470"/>
<stop offset="0.62" stop-color="#699B40"/>
<stop offset="0.78" stop-color="#4E891D"/>
<stop offset="0.91" stop-color="#3D7E08"/>
<stop offset="1" stop-color="#377A00"/>
</linearGradient>
<radialGradient id="paint19_radial_333_9697" cx="0" cy="0" r="1" gradientUnits="userSpaceOnUse" gradientTransform="translate(28.1711 17.5275) rotate(-53.5868) scale(14.44 14.423)">
<stop stop-color="#7CAE00"/>
<stop offset="0.11" stop-color="#76A600"/>
<stop offset="0.29" stop-color="#669000"/>
<stop offset="0.5" stop-color="#4D6B00"/>
<stop offset="0.75" stop-color="#293900"/>
<stop offset="1"/>
</radialGradient>
<radialGradient id="paint20_radial_333_9697" cx="0" cy="0" r="1" gradientUnits="userSpaceOnUse" gradientTransform="translate(23.7471 13.6281) rotate(-53.5868) scale(10.168 10.156)">
<stop stop-color="#7CAE00"/>
<stop offset="0.11" stop-color="#76A600"/>
<stop offset="0.29" stop-color="#669000"/>
<stop offset="0.5" stop-color="#4D6B00"/>
<stop offset="0.75" stop-color="#293900"/>
<stop offset="1"/>
</radialGradient>
<radialGradient id="paint21_radial_333_9697" cx="0" cy="0" r="1" gradientUnits="userSpaceOnUse" gradientTransform="translate(34.7128 18.865) rotate(-53.5868) scale(15.4992 15.4809)">
<stop stop-color="#7CAE00"/>
<stop offset="0.11" stop-color="#76A600"/>
<stop offset="0.29" stop-color="#669000"/>
<stop offset="0.5" stop-color="#4D6B00"/>
<stop offset="0.75" stop-color="#293900"/>
<stop offset="1"/>
</radialGradient>
<radialGradient id="paint22_radial_333_9697" cx="0" cy="0" r="1" gradientUnits="userSpaceOnUse" gradientTransform="translate(41.1939 21.7369) rotate(-53.3729) scale(20.0497 15.1585)">
<stop stop-color="#7CAE00"/>
<stop offset="0.11" stop-color="#76A600"/>
<stop offset="0.29" stop-color="#669000"/>
<stop offset="0.5" stop-color="#4D6B00"/>
<stop offset="0.75" stop-color="#293900"/>
<stop offset="1"/>
</radialGradient>
<radialGradient id="paint23_radial_333_9697" cx="0" cy="0" r="1" gradientUnits="userSpaceOnUse" gradientTransform="translate(49.0495 25.3191) rotate(-40.4349) scale(21.3659 16.2831)">
<stop stop-color="#7CAE00"/>
<stop offset="0.11" stop-color="#76A600"/>
<stop offset="0.29" stop-color="#669000"/>
<stop offset="0.5" stop-color="#4D6B00"/>
<stop offset="0.75" stop-color="#293900"/>
<stop offset="1"/>
</radialGradient>
<linearGradient id="paint24_linear_333_9697" x1="17.1696" y1="15.1391" x2="7.77202" y2="23.7686" gradientUnits="userSpaceOnUse">
<stop stop-color="white"/>
<stop offset="1" stop-color="#377A00"/>
</linearGradient>
<linearGradient id="paint25_linear_333_9697" x1="35.7955" y1="35.4263" x2="26.3887" y2="44.0595" gradientUnits="userSpaceOnUse">
<stop stop-color="white"/>
<stop offset="1" stop-color="#377A00"/>
</linearGradient>
</defs>
</svg>
