<svg width="107" height="120" viewBox="0 0 107 120" fill="none" xmlns="http://www.w3.org/2000/svg">
<path d="M25.8277 60.1195C23.4923 67.7517 28.4008 79.6064 30.6309 83.1953C30.6678 81.6146 31.0107 80.0557 31.6409 78.6047C33.4454 82.4504 36.7643 88.9769 39.0113 91.5249C39.0568 89.6502 39.5431 87.8121 40.4308 86.159C42.4706 89.2829 51.7004 103.039 51.7984 103.779C52.0626 102.194 52.4912 100.64 53.0772 99.1423C54.9408 102.231 57.317 108.927 52.3503 115.042C60.2247 117.273 69.8352 109.426 71.9302 102.827C72.0488 102.447 72.9332 105.43 73.1087 105.08C77.9196 95.7348 77.5672 86.8126 77.0646 86.4073C77.8193 86.9311 78.5778 87.4397 79.3041 87.9806C81.0069 82.2505 81.162 73.2927 78.7769 67.8648C80.0969 67.9784 81.3859 68.3263 82.5832 68.892C82.6666 60.7921 80.2453 52.8669 75.6504 46.1995C77.397 45.8872 79.1758 45.7965 80.9446 45.9295C78.0683 37.1647 66.6177 28.6005 57.7056 27.4073C54.0101 26.9059 50.7154 27.0902 47.426 29.0364C46.1303 29.8182 44.4862 28.6329 43.1558 29.0363C42.3382 29.2849 42.2392 30.0403 41.6492 30.4736C40.6382 31.1425 39.4563 31.5068 38.2445 31.5231C36.6725 31.6916 35.1809 32.3055 33.9455 33.2926C29.7747 36.2165 26.5492 40.2945 24.6662 45.0246C22.5925 50.8849 21.8534 57.1323 22.5028 63.3111C23.5041 62.1413 24.6178 61.0723 25.8277 60.1195Z" fill="url(#paint0_linear_333_9629)"/>
<path d="M36.2017 12.0382C35.368 10.8277 32.8121 12.0866 33.3751 13.3831C41.3059 26.1085 48.0225 39.5516 53.4364 53.5352C57.8141 65.066 62.9046 82.9308 64.1043 96.2504C64.6848 102.729 61.0758 112.74 52.8673 115.065C55.3686 114.934 65.2004 110.831 65.287 95.7945C65.3075 86.7633 61.7063 71.3239 57.8026 59.0819C52.4641 42.6101 45.2145 26.8215 36.2017 12.0382Z" fill="url(#paint1_linear_333_9629)"/>
<g style="mix-blend-mode:multiply" opacity="0.7">
<path opacity="0.8" d="M57.7854 59.054C61.7062 71.3243 65.3359 86.8109 65.2698 95.7665C65.1945 109.817 56.5794 114.332 53.4238 114.961L52.6364 115.153C60.4401 117.053 69.7802 109.356 71.8431 102.854C71.9617 102.474 72.8461 105.457 73.0216 105.107C77.8325 95.7617 77.4801 86.8396 76.9775 86.4343C77.7322 86.9581 78.4907 87.4667 79.217 88.0076C80.9198 82.2775 81.0749 73.3197 78.6897 67.8918C80.0098 68.0054 81.2987 68.3533 82.4961 68.919C82.5795 60.8191 80.1582 52.8939 75.5633 46.2264C77.3099 45.9142 79.0887 45.8235 80.8575 45.9565C77.9812 37.1917 66.5306 28.6274 57.6185 27.4343C53.923 26.9328 50.6283 27.1171 47.3389 29.0634C46.8 29.3401 46.1792 29.4126 45.5914 29.2675C50.3681 38.8894 54.4433 48.8441 57.7854 59.054Z" fill="url(#paint2_linear_333_9629)"/>
<path opacity="0.6" d="M25.8276 60.1198C23.4922 67.7519 28.4007 79.6066 30.6308 83.1955C30.6676 81.6148 31.0106 80.0559 31.6408 78.6049C33.4453 82.4506 36.7642 88.9771 39.0112 91.5251C39.0567 89.6505 39.543 87.8123 40.4306 86.1592C42.4705 89.2831 51.7003 103.04 51.7983 103.779C52.0625 102.194 52.4911 100.64 53.0771 99.1426C54.9407 102.231 57.3169 108.927 52.3502 115.042L52.5871 115.157L53.4331 114.891C61.2622 112.28 64.6825 102.576 64.1136 96.2451C62.9139 82.9255 57.8327 64.9907 53.4457 53.5299C50.2656 45.2949 46.6269 37.2447 42.5466 29.4169C42.274 29.7954 41.9707 30.1508 41.6397 30.4795C40.6286 31.1484 39.4467 31.5128 38.235 31.5291C36.6629 31.6975 35.1713 32.3115 33.9359 33.2986C29.7651 36.2224 26.5397 40.3005 24.6567 45.0306C22.583 50.8908 21.8438 57.1382 22.4933 63.3171C23.4973 62.1448 24.6141 61.0739 25.8276 60.1198Z" fill="url(#paint3_linear_333_9629)"/>
<path opacity="0.8" d="M25.8276 60.1198C23.4922 67.7519 28.4007 79.6066 30.6308 83.1955C30.6676 81.6148 31.0106 80.0559 31.6408 78.6049C33.4453 82.4506 36.7642 88.9771 39.0112 91.5251C39.0567 89.6505 39.543 87.8123 40.4306 86.1592C42.4705 89.2831 51.7003 103.04 51.7983 103.779C52.0625 102.194 52.4911 100.64 53.0771 99.1426C54.9407 102.231 57.3169 108.927 52.3502 115.042L52.5871 115.157L53.4331 114.891C61.2622 112.28 64.6825 102.576 64.1136 96.2451C62.9139 82.9255 57.8327 64.9907 53.4457 53.5299C50.2656 45.2949 46.6269 37.2447 42.5466 29.4169C42.274 29.7954 41.9707 30.1508 41.6397 30.4795C40.6286 31.1484 39.4467 31.5128 38.235 31.5291C36.6629 31.6975 35.1713 32.3115 33.9359 33.2986C29.7651 36.2224 26.5397 40.3005 24.6567 45.0306C22.583 50.8908 21.8438 57.1382 22.4933 63.3171C23.4973 62.1448 24.6141 61.0739 25.8276 60.1198Z" fill="url(#paint4_linear_333_9629)"/>
</g>
<mask id="mask0_333_9629" style="mask-type:luminance" maskUnits="userSpaceOnUse" x="22" y="27" width="61" height="89">
<path d="M25.8277 60.1195C23.4923 67.7517 28.4008 79.6064 30.6309 83.1953C30.6678 81.6146 31.0107 80.0557 31.6409 78.6047C33.4454 82.4504 36.7643 88.9769 39.0113 91.5249C39.0568 89.6502 39.5431 87.8121 40.4308 86.159C42.4706 89.2829 51.7004 103.039 51.7984 103.779C52.0626 102.194 52.4912 100.64 53.0772 99.1423C54.9408 102.231 57.317 108.927 52.3503 115.042C60.2247 117.273 69.8352 109.426 71.9302 102.827C72.0488 102.447 72.9332 105.43 73.1087 105.08C77.9196 95.7348 77.5672 86.8126 77.0646 86.4073C77.8193 86.9311 78.5778 87.4397 79.3041 87.9806C81.0069 82.2505 81.162 73.2927 78.7769 67.8648C80.0969 67.9784 81.3859 68.3263 82.5832 68.892C82.6666 60.7921 80.2453 52.8669 75.6504 46.1995C77.397 45.8872 79.1758 45.7965 80.9446 45.9295C78.0683 37.1647 66.6177 28.6005 57.7056 27.4073C54.0101 26.9059 50.7154 27.0902 47.426 29.0364C46.1303 29.8182 44.4862 28.6329 43.1558 29.0363C42.3382 29.2849 42.2392 30.0403 41.6492 30.4736C40.6382 31.1425 39.4563 31.5068 38.2445 31.5231C36.6725 31.6916 35.1809 32.3055 33.9455 33.2926C29.7747 36.2165 26.5492 40.2945 24.6662 45.0246C22.5925 50.8849 21.8534 57.1323 22.5028 63.3111C23.5041 62.1413 24.6178 61.0723 25.8277 60.1195Z" fill="white"/>
</mask>
<g mask="url(#mask0_333_9629)">
<g style="mix-blend-mode:screen" opacity="0.7">
<path opacity="0.6" d="M50.0449 42.6337C50.0943 43.6991 50.9243 44.9891 50.1362 45.7996C30.3752 66.2658 31.4085 70.886 30.8892 74.6007C29.6851 61.9151 49.1321 48.5185 49.3507 41.0556C49.5822 41.2456 49.7657 41.4875 49.8864 41.7617C50.007 42.0358 50.0613 42.3346 50.0449 42.6337Z" fill="url(#paint5_linear_333_9629)"/>
<path opacity="0.6" d="M46.3618 38.775C47.1373 38.307 46.7314 36.993 46.8831 36.0898C46.952 35.8407 46.9658 35.5796 46.9234 35.3248C46.8811 35.07 46.7836 34.8276 46.6378 34.6144C45.0761 40.8134 27.5078 47.4461 26.0632 58.3931C27.1652 55.4089 27.2463 51.2887 46.3618 38.775Z" fill="url(#paint6_linear_333_9629)"/>
<path opacity="0.6" d="M53.3725 54.6051C53.924 53.8728 53.1114 52.8042 52.9563 51.9057C52.9281 51.6481 52.8441 51.3999 52.7103 51.1781C52.5764 50.9563 52.3959 50.7663 52.1812 50.6212C52.8165 56.9762 36.9187 72.5988 39.2592 83.3619C39.3174 80.1445 39.6594 72.8648 53.3725 54.6051Z" fill="url(#paint7_linear_333_9629)"/>
<path opacity="0.6" d="M59.5662 69.1245C59.3814 68.5403 59.2022 67.9656 59.0269 67.3756C55.2674 74.9781 45.6546 86.5635 47.5304 95.0173C47.5683 92.044 47.8811 85.336 59.5662 69.1245Z" fill="url(#paint8_linear_333_9629)"/>
<path opacity="0.6" d="M63.0934 82.5599C62.9885 82.1722 62.4766 80.8964 62.3717 80.5087C59.965 84.5377 51.8439 92.8653 52.7865 98.5324C52.9777 96.5617 53.5337 92.245 63.0934 82.5599Z" fill="url(#paint9_linear_333_9629)"/>
<path opacity="0.3" d="M63.7043 91.0552C64.0866 90.9404 63.9338 92.2051 64.3426 92.113C63.2682 95.6989 60.1683 107.516 55.2965 110.816C57.7024 108.347 60.7486 102.064 63.7043 91.0552Z" fill="url(#paint10_linear_333_9629)"/>
</g>
<g style="mix-blend-mode:screen" opacity="0.7">
<path opacity="0.7" d="M54.8513 51.69C75.9448 50.5575 77.6639 54.3258 79.9385 56.4062C75.4532 48.9731 62.6285 50.6175 54.2839 50.0869C54.5206 50.6032 54.7105 51.1397 54.8513 51.69Z" fill="url(#paint11_linear_333_9629)"/>
<path opacity="0.7" d="M50.7746 44.0358C50.834 44.4123 50.9029 44.783 50.9946 45.1915C51.91 45.5539 52.6528 45.8014 53.0085 45.6641C63.6868 41.6171 74.5234 43.0919 77.4102 44.4551C70.3532 38.9602 57.7052 42.9073 50.2609 42.7997C50.4619 43.1987 50.6336 43.6119 50.7746 44.0358Z" fill="url(#paint12_linear_333_9629)"/>
<path opacity="0.7" d="M47.7278 35.1806C47.8495 35.5769 47.9427 35.9814 48.0066 36.391C48.1865 36.45 48.3777 36.4669 48.5653 36.4404C59.3456 33.2466 70.2384 35.3704 73.1405 36.866C66.4225 31.3984 54.6334 33.861 47.0278 33.5931C47.3156 34.0965 47.5502 34.6286 47.7278 35.1806Z" fill="url(#paint13_linear_333_9629)"/>
<path opacity="0.7" d="M55.7178 56.2046L55.8614 57.0199C72.2545 60.6691 76.7665 65.2389 78.7001 67.2673C74.437 60.2025 64.1792 57.3992 55.054 54.6984C55.3193 55.1799 55.5415 55.6839 55.7178 56.2046Z" fill="url(#paint14_linear_333_9629)"/>
<path opacity="0.7" d="M59.2424 68.2244C59.0879 67.6477 58.9562 67.1087 58.7581 66.481C64.9723 70.9641 77.0123 75.8229 79.8759 83.9254C78.4035 81.3996 74.9426 75.8993 59.2424 68.2244Z" fill="url(#paint15_linear_333_9629)"/>
<path opacity="0.7" d="M63.0115 81.398C63.0391 80.9948 62.7218 79.4212 62.7323 78.9897C65.9051 82.4091 76.0759 89.1945 76.2442 94.9681C75.7387 93.0828 74.3086 88.9596 63.0115 81.398Z" fill="url(#paint16_linear_333_9629)"/>
<path opacity="0.7" d="M63.7314 89.4543C69.0363 95.723 71.6943 100.278 72.3795 103.059C72.1851 98.4612 66.9877 91.9859 63.632 88.0069C63.7119 88.4849 63.7452 88.9697 63.7314 89.4543Z" fill="url(#paint17_linear_333_9629)"/>
</g>
</g>
<path opacity="0.6" d="M36.2017 12.0382C35.368 10.8277 32.8121 12.0866 33.3751 13.3831C41.3059 26.1085 48.0225 39.5516 53.4364 53.5352C57.8141 65.066 62.9046 82.9308 64.1043 96.2504C64.6848 102.729 61.0758 112.74 52.8673 115.065C55.3686 114.934 65.2004 110.831 65.287 95.7945C65.3075 86.7633 61.7063 71.3239 57.8026 59.0819C52.4641 42.6101 45.2145 26.8215 36.2017 12.0382Z" fill="url(#paint18_linear_333_9629)"/>
<mask id="mask1_333_9629" style="mask-type:luminance" maskUnits="userSpaceOnUse" x="22" y="27" width="61" height="89">
<path d="M25.8277 60.1195C23.4923 67.7517 28.4008 79.6064 30.6309 83.1953C30.6678 81.6146 31.0107 80.0557 31.6409 78.6047C33.4454 82.4504 36.7643 88.9769 39.0113 91.5249C39.0568 89.6502 39.5431 87.8121 40.4308 86.159C42.4706 89.2829 51.7004 103.039 51.7984 103.779C52.0626 102.194 52.4912 100.64 53.0772 99.1423C54.9408 102.231 57.317 108.927 52.3503 115.042C60.2247 117.273 69.8352 109.426 71.9302 102.827C72.0488 102.447 72.9332 105.43 73.1087 105.08C77.9196 95.7348 77.5672 86.8126 77.0646 86.4073C77.8193 86.9311 78.5778 87.4397 79.3041 87.9806C81.0069 82.2505 81.162 73.2927 78.7769 67.8648C80.0969 67.9784 81.3859 68.3263 82.5832 68.892C82.6666 60.7921 80.2453 52.8669 75.6504 46.1995C77.397 45.8872 79.1758 45.7965 80.9446 45.9295C78.0683 37.1647 66.6177 28.6005 57.7056 27.4073C54.0101 26.9059 50.7154 27.0902 47.426 29.0364C46.1303 29.8182 44.4862 28.6329 43.1558 29.0363C42.3382 29.2849 42.2392 30.0403 41.6492 30.4736C40.6382 31.1425 39.4563 31.5068 38.2445 31.5231C36.6725 31.6916 35.1809 32.3055 33.9455 33.2926C29.7747 36.2165 26.5492 40.2945 24.6662 45.0246C22.5925 50.8849 21.8534 57.1323 22.5028 63.3111C23.5041 62.1413 24.6178 61.0723 25.8277 60.1195Z" fill="white"/>
</mask>
<g mask="url(#mask1_333_9629)">
<path style="mix-blend-mode:screen" opacity="0.8" d="M47.4669 97.5417C47.5587 96.069 47.6961 94.6076 47.8921 93.1365C48.0769 91.5931 48.3855 90.0669 48.815 88.5727C49.3094 87.0313 49.9037 85.5236 50.5939 84.0592C52.2514 80.392 57.4326 72.5372 57.5616 71.6606C57.6906 70.784 55.5993 64.5603 55.2951 62.9015C52.4497 64.3221 47.5872 71.5078 44.9433 77.239C43.6554 80.0647 42.5671 86.3001 42.45 89.3985C42.2016 92.5311 43.1783 95.6365 45.1746 98.0616C45.6965 98.6486 46.6387 99.1623 47.1735 98.5948C47.391 98.2885 47.4948 97.916 47.4669 97.5417Z" fill="url(#paint19_radial_333_9629)"/>
<path style="mix-blend-mode:screen" opacity="0.4" d="M50.8706 110.794C50.9624 109.322 51.9624 105.42 51.9595 103.94C51.9761 92.8498 60.8704 85.7822 60.9994 84.9056C61.1284 84.0289 59.0389 77.7655 58.7177 76.1427C55.8723 77.5633 48.3939 92.2156 50.8636 103.236C51.5379 106.256 46.5116 108.98 48.5802 111.275C49.102 111.861 50.0442 112.375 50.579 111.808C50.7956 111.516 50.8992 111.156 50.8706 110.794Z" fill="url(#paint20_radial_333_9629)"/>
<path style="mix-blend-mode:screen" opacity="0.8" d="M38.9572 91.9058C36.0895 77.7889 49.5737 59.6415 49.697 58.7554C49.7832 56.9397 49.6512 55.1204 49.304 53.3365C46.4549 54.7722 30.4188 76.2375 34.305 85.3077C35.4917 87.7424 37.0624 89.9702 38.9572 91.9058Z" fill="url(#paint21_radial_333_9629)"/>
<path style="mix-blend-mode:screen" opacity="0.7" d="M30.7032 83.4225C27.0158 67.4554 46.5038 49.7437 46.7009 48.8517C46.9633 47.0209 46.9501 45.1615 46.6619 43.3352C42.8551 45.0653 21.5149 63.6628 26.7387 76.9378C27.7507 79.274 29.0852 81.4568 30.7032 83.4225Z" fill="url(#paint22_radial_333_9629)"/>
<path style="mix-blend-mode:screen" opacity="0.6" d="M20.9799 71.0074C20.7497 62.5656 26.6296 54.7143 33.1078 48.731C37.4347 44.6771 42.0305 41.6462 44.9326 39.1864C45.6945 38.5463 42.9012 34.5371 42.9813 32.8525C38.9001 33.6789 17.9896 47.3015 20.0581 61.3982C20.5091 64.4759 21.0033 71.3669 20.9799 71.0074Z" fill="url(#paint23_radial_333_9629)"/>
</g>
<g style="mix-blend-mode:multiply" opacity="0.2">
<path opacity="0.8" d="M76.5149 87.1641C76.4196 87.1069 76.3426 87.0238 76.2929 86.9244C76.6031 87.7164 76.799 95.0323 73.0311 103.22C72.7286 102.462 72.5841 102.201 72.171 102.051L71.7939 101.918L71.1697 102.294L71.0567 102.62C69.9537 106.094 66.6811 109.886 62.6995 112.288C61.0634 113.276 56.4503 115.209 53.1796 115.069L52.5871 115.156C60.3908 117.057 69.7309 109.36 71.7938 102.858C71.9124 102.477 72.7968 105.461 72.9723 105.11C77.7832 95.7654 77.4365 86.8528 76.9282 86.438L76.5149 87.1641Z" fill="url(#paint24_linear_333_9629)"/>
<path opacity="0.8" d="M57.5804 28.2688C66.108 29.4234 76.461 37.3873 79.7026 45.0685C78.277 45.0222 76.8504 45.1313 75.4481 45.3939L74.1874 45.6779L74.9488 46.7259C79.1669 52.9176 81.5293 60.185 81.759 67.6758C80.7802 67.2642 79.7297 67.0489 78.6673 67.0419L77.5276 67.1628L77.9651 68.1871C80.1316 73.1672 80.0257 81.1161 78.7599 86.6083L77.4365 85.7835L76.9663 86.4795C77.721 87.0033 78.4794 87.5119 79.2058 88.0528C80.9085 82.3227 81.0636 73.365 78.6785 67.937C79.9986 68.0506 81.2875 68.3985 82.4849 68.9643C82.5683 60.8643 80.147 52.9391 75.552 46.2717C77.2986 45.9594 79.0774 45.8687 80.8463 46.0017C77.9699 37.2369 66.5194 28.6727 57.6073 27.4795C54.5226 26.8977 51.3329 27.2598 48.4552 28.5184C51.2729 28.4416 54.4853 27.8431 57.5804 28.2688Z" fill="url(#paint25_linear_333_9629)"/>
</g>
<defs>
<linearGradient id="paint0_linear_333_9629" x1="38.8358" y1="31.7332" x2="77.675" y2="106.654" gradientUnits="userSpaceOnUse">
<stop stop-color="#88C718"/>
<stop offset="0.26" stop-color="#83C418"/>
<stop offset="0.59" stop-color="#74BA16"/>
<stop offset="0.95" stop-color="#5AAA14"/>
<stop offset="1" stop-color="#56A714"/>
</linearGradient>
<linearGradient id="paint1_linear_333_9629" x1="36.8896" y1="28.7904" x2="54.5104" y2="84.357" gradientUnits="userSpaceOnUse">
<stop stop-color="#6FBD00"/>
<stop offset="1" stop-color="#90C900"/>
</linearGradient>
<linearGradient id="paint2_linear_333_9629" x1="62.9138" y1="27.8739" x2="67.4865" y2="101.819" gradientUnits="userSpaceOnUse">
<stop stop-color="white"/>
<stop offset="1" stop-color="#377A00"/>
</linearGradient>
<linearGradient id="paint3_linear_333_9629" x1="32.621" y1="20.2062" x2="44.8328" y2="86.8328" gradientUnits="userSpaceOnUse">
<stop stop-color="white"/>
<stop offset="1" stop-color="#377A00"/>
</linearGradient>
<linearGradient id="paint4_linear_333_9629" x1="21.2041" y1="78.116" x2="58.4299" y2="69.91" gradientUnits="userSpaceOnUse">
<stop stop-color="white"/>
<stop offset="1" stop-color="#377A00"/>
</linearGradient>
<linearGradient id="paint5_linear_333_9629" x1="31.6" y1="72.616" x2="46.5709" y2="47.0393" gradientUnits="userSpaceOnUse">
<stop stop-color="#5FA200"/>
<stop offset="0.15" stop-color="#6DA800"/>
<stop offset="0.34" stop-color="#7CAE00"/>
<stop offset="1" stop-color="#5FA200"/>
</linearGradient>
<linearGradient id="paint6_linear_333_9629" x1="30.219" y1="58.4699" x2="41.8143" y2="37.7562" gradientUnits="userSpaceOnUse">
<stop stop-color="#5FA200"/>
<stop offset="0.15" stop-color="#6DA800"/>
<stop offset="0.34" stop-color="#7CAE00"/>
<stop offset="1" stop-color="#5FA200"/>
</linearGradient>
<linearGradient id="paint7_linear_333_9629" x1="43.3584" y1="82.1635" x2="47.6244" y2="55.8562" gradientUnits="userSpaceOnUse">
<stop stop-color="#5FA200"/>
<stop offset="0.15" stop-color="#6DA800"/>
<stop offset="0.34" stop-color="#7CAE00"/>
<stop offset="1" stop-color="#5FA200"/>
</linearGradient>
<linearGradient id="paint8_linear_333_9629" x1="46.9433" y1="92.3702" x2="58.4318" y2="71.3858" gradientUnits="userSpaceOnUse">
<stop stop-color="#5FA200"/>
<stop offset="0.15" stop-color="#6DA800"/>
<stop offset="0.34" stop-color="#7CAE00"/>
<stop offset="1" stop-color="#5FA200"/>
</linearGradient>
<linearGradient id="paint9_linear_333_9629" x1="53.4891" y1="97.0906" x2="63.7589" y2="84.8183" gradientUnits="userSpaceOnUse">
<stop stop-color="#5FA200"/>
<stop offset="0.15" stop-color="#6DA800"/>
<stop offset="0.34" stop-color="#7CAE00"/>
<stop offset="1" stop-color="#5FA200"/>
</linearGradient>
<linearGradient id="paint10_linear_333_9629" x1="55.0645" y1="109.321" x2="60.3876" y2="92.9171" gradientUnits="userSpaceOnUse">
<stop stop-color="#5FA200"/>
<stop offset="0.15" stop-color="#6DA800"/>
<stop offset="0.34" stop-color="#7CAE00"/>
<stop offset="1" stop-color="#5FA200"/>
</linearGradient>
<linearGradient id="paint11_linear_333_9629" x1="80.142" y1="54.2641" x2="53.64" y2="50.9462" gradientUnits="userSpaceOnUse">
<stop stop-color="#5FA200"/>
<stop offset="0.15" stop-color="#6DA800"/>
<stop offset="0.34" stop-color="#7CAE00"/>
<stop offset="1" stop-color="#5FA200"/>
</linearGradient>
<linearGradient id="paint12_linear_333_9629" x1="74.6822" y1="46.4722" x2="51.8638" y2="39.8191" gradientUnits="userSpaceOnUse">
<stop stop-color="#5FA200"/>
<stop offset="0.15" stop-color="#6DA800"/>
<stop offset="0.34" stop-color="#7CAE00"/>
<stop offset="1" stop-color="#5FA200"/>
</linearGradient>
<linearGradient id="paint13_linear_333_9629" x1="70.9147" y1="38.8566" x2="47.7223" y2="31.5513" gradientUnits="userSpaceOnUse">
<stop stop-color="#5FA200"/>
<stop offset="0.15" stop-color="#6DA800"/>
<stop offset="0.34" stop-color="#7CAE00"/>
<stop offset="1" stop-color="#5FA200"/>
</linearGradient>
<linearGradient id="paint14_linear_333_9629" x1="78.6626" y1="65.4732" x2="57.2797" y2="56.1625" gradientUnits="userSpaceOnUse">
<stop stop-color="#5FA200"/>
<stop offset="0.15" stop-color="#6DA800"/>
<stop offset="0.34" stop-color="#7CAE00"/>
<stop offset="1" stop-color="#5FA200"/>
</linearGradient>
<linearGradient id="paint15_linear_333_9629" x1="79.8318" y1="80.4349" x2="60.7844" y2="70.1169" gradientUnits="userSpaceOnUse">
<stop stop-color="#5FA200"/>
<stop offset="0.15" stop-color="#6DA800"/>
<stop offset="0.34" stop-color="#7CAE00"/>
<stop offset="1" stop-color="#5FA200"/>
</linearGradient>
<linearGradient id="paint16_linear_333_9629" x1="75.6087" y1="93.4759" x2="62.6741" y2="83.2075" gradientUnits="userSpaceOnUse">
<stop stop-color="#5FA200"/>
<stop offset="0.15" stop-color="#6DA800"/>
<stop offset="0.34" stop-color="#7CAE00"/>
<stop offset="1" stop-color="#5FA200"/>
</linearGradient>
<linearGradient id="paint17_linear_333_9629" x1="72.9096" y1="102.104" x2="63.3025" y2="88.6924" gradientUnits="userSpaceOnUse">
<stop stop-color="#5FA200"/>
<stop offset="0.15" stop-color="#6DA800"/>
<stop offset="0.34" stop-color="#7CAE00"/>
<stop offset="1" stop-color="#5FA200"/>
</linearGradient>
<linearGradient id="paint18_linear_333_9629" x1="34.4517" y1="19.366" x2="60.65" y2="104.123" gradientUnits="userSpaceOnUse">
<stop stop-color="white"/>
<stop offset="0.02" stop-color="#FAFCF8"/>
<stop offset="0.23" stop-color="#C0D5AE"/>
<stop offset="0.44" stop-color="#8FB470"/>
<stop offset="0.62" stop-color="#699B40"/>
<stop offset="0.78" stop-color="#4E891D"/>
<stop offset="0.91" stop-color="#3D7E08"/>
<stop offset="1" stop-color="#377A00"/>
</linearGradient>
<radialGradient id="paint19_radial_333_9629" cx="0" cy="0" r="1" gradientUnits="userSpaceOnUse" gradientTransform="translate(50.9116 88.3101) rotate(162.276) scale(22.5872 22.5605)">
<stop stop-color="#7CAE00"/>
<stop offset="0.11" stop-color="#76A600"/>
<stop offset="0.29" stop-color="#669000"/>
<stop offset="0.5" stop-color="#4D6B00"/>
<stop offset="0.75" stop-color="#293900"/>
<stop offset="1"/>
</radialGradient>
<radialGradient id="paint20_radial_333_9629" cx="0" cy="0" r="1" gradientUnits="userSpaceOnUse" gradientTransform="translate(52.9464 97.3078) rotate(162.276) scale(15.9049 15.8861)">
<stop stop-color="#7CAE00"/>
<stop offset="0.11" stop-color="#76A600"/>
<stop offset="0.29" stop-color="#669000"/>
<stop offset="0.5" stop-color="#4D6B00"/>
<stop offset="0.75" stop-color="#293900"/>
<stop offset="1"/>
</radialGradient>
<radialGradient id="paint21_radial_333_9629" cx="0" cy="0" r="1" gradientUnits="userSpaceOnUse" gradientTransform="translate(43.8447 80.6202) rotate(162.276) scale(24.2439 24.2153)">
<stop stop-color="#7CAE00"/>
<stop offset="0.11" stop-color="#76A600"/>
<stop offset="0.29" stop-color="#669000"/>
<stop offset="0.5" stop-color="#4D6B00"/>
<stop offset="0.75" stop-color="#293900"/>
<stop offset="1"/>
</radialGradient>
<radialGradient id="paint22_radial_333_9629" cx="0" cy="0" r="1" gradientUnits="userSpaceOnUse" gradientTransform="translate(38.2603 71.0404) rotate(162.49) scale(31.362 23.711)">
<stop stop-color="#7CAE00"/>
<stop offset="0.11" stop-color="#76A600"/>
<stop offset="0.29" stop-color="#669000"/>
<stop offset="0.5" stop-color="#4D6B00"/>
<stop offset="0.75" stop-color="#293900"/>
<stop offset="1"/>
</radialGradient>
<radialGradient id="paint23_radial_333_9629" cx="0" cy="0" r="1" gradientUnits="userSpaceOnUse" gradientTransform="translate(31.5848 59.3006) rotate(175.427) scale(33.4207 25.4701)">
<stop stop-color="#7CAE00"/>
<stop offset="0.11" stop-color="#76A600"/>
<stop offset="0.29" stop-color="#669000"/>
<stop offset="0.5" stop-color="#4D6B00"/>
<stop offset="0.75" stop-color="#293900"/>
<stop offset="1"/>
</radialGradient>
<linearGradient id="paint24_linear_333_9629" x1="62.6692" y1="101.42" x2="82.4901" y2="99.092" gradientUnits="userSpaceOnUse">
<stop stop-color="white"/>
<stop offset="1" stop-color="#377A00"/>
</linearGradient>
<linearGradient id="paint25_linear_333_9629" x1="57.6483" y1="58.634" x2="77.4843" y2="56.3101" gradientUnits="userSpaceOnUse">
<stop stop-color="white"/>
<stop offset="1" stop-color="#377A00"/>
</linearGradient>
</defs>
</svg>
